HIERARCHY
ROOT root
{
	OFFSET	0	13.1	24.9
	CHANNELS 6  Xposition Yposition Zposition Xrotation Yrotation Zrotation
	JOINT spine_1
	{
		OFFSET	0	9.99999	0
		CHANNELS 3  Xrotation Yrotation Zrotation
		JOINT spine_2
		{
			OFFSET	0	112	-10
			CHANNELS 3  Xrotation Yrotation Zrotation
			JOINT spine_3
			{
				OFFSET	0	206.5	19.3
				CHANNELS 3  Xrotation Yrotation Zrotation
				JOINT spine_4
				{
					OFFSET	0	110.4	14.6
					CHANNELS 3  Xrotation Yrotation Zrotation
					JOINT neck_1
					{
						OFFSET	0	71.8	-50.3
						CHANNELS 3  Xrotation Yrotation Zrotation
						JOINT neck_2
						{
							OFFSET	0	86.2	-25.8
							CHANNELS 3  Xrotation Yrotation Zrotation
							JOINT head_ee
							{
								OFFSET	0	179.8	-8.7
								CHANNELS 3  Xrotation Yrotation Zrotation
								End Site
								{
									OFFSET	1	0	0
								}
							}
						}
					}
					JOINT left_clavicle
					{
						OFFSET	-43.2	22.4	-70.8
						CHANNELS 3  Xrotation Yrotation Zrotation
						JOINT left_shoulder
						{
							OFFSET	-93.9	-5.79999	48.7
							CHANNELS 3  Xrotation Yrotation Zrotation
							JOINT left_elbow
							{
								OFFSET	-291.4	-30.8	15.2
								CHANNELS 3  Xrotation Yrotation Zrotation
								JOINT left_lowarm_twist
								{
									OFFSET	-110.7	-3.89999	13.6
									CHANNELS 3  Xrotation Yrotation Zrotation
									JOINT left_hand
									{
										OFFSET	-110.7	-3.89999	13.6
										CHANNELS 3  Xrotation Yrotation Zrotation
										JOINT left_ee
										{
											OFFSET	-80.8	-5.10001	12.1
											CHANNELS 3  Xrotation Yrotation Zrotation
											End Site
											{
												OFFSET	1	0	0
											}
										}
									}
								}
							}
						}
					}
					JOINT right_clavicle
					{
						OFFSET	43.2	22.4	-70.8
						CHANNELS 3  Xrotation Yrotation Zrotation
						JOINT right_shoulder
						{
							OFFSET	93.9	-5.79999	48.7
							CHANNELS 3  Xrotation Yrotation Zrotation
							JOINT right_elbow
							{
								OFFSET	291.4	-30.8	15.2
								CHANNELS 3  Xrotation Yrotation Zrotation
								JOINT right_lowarm_twist
								{
									OFFSET	110.7	-3.89999	13.6
									CHANNELS 3  Xrotation Yrotation Zrotation
									JOINT right_hand
									{
										OFFSET	110.7	-3.89999	13.6
										CHANNELS 3  Xrotation Yrotation Zrotation
										JOINT right_ee
										{
											OFFSET	80.8	-5.10001	12.1
											CHANNELS 3  Xrotation Yrotation Zrotation
											End Site
											{
												OFFSET	1	0	0
											}
										}
									}
								}
							}
						}
					}
				}
			}
		}
	}
	JOINT left_hip
	{
		OFFSET	-82.8	-127.5	0.300001
		CHANNELS 3  Xrotation Yrotation Zrotation
		JOINT left_knee
		{
			OFFSET	-28.2	-396.7	2.2
			CHANNELS 3  Xrotation Yrotation Zrotation
			JOINT left_ankle
			{
				OFFSET	-11.7	-411.3	35.4
				CHANNELS 3  Xrotation Yrotation Zrotation
				JOINT left_toes
				{
					OFFSET	0	-60	-88.6
					CHANNELS 3  Xrotation Yrotation Zrotation
					JOINT left_foot_ee
					{
						OFFSET	-22.5	-16.5	-42.2
						CHANNELS 3  Xrotation Yrotation Zrotation
						End Site
						{
							OFFSET	1	0	0
						}
					}
				}
			}
		}
	}
	JOINT right_hip
	{
		OFFSET	82.8	-127.5	0.300001
		CHANNELS 3  Xrotation Yrotation Zrotation
		JOINT right_knee
		{
			OFFSET	28.2	-396.7	2.2
			CHANNELS 3  Xrotation Yrotation Zrotation
			JOINT right_ankle
			{
				OFFSET	11.7	-411.3	35.4
				CHANNELS 3  Xrotation Yrotation Zrotation
				JOINT right_toes
				{
					OFFSET	0	-60	-88.6
					CHANNELS 3  Xrotation Yrotation Zrotation
					JOINT right_foot_ee
					{
						OFFSET	22.5	-16.5	-42.2
						CHANNELS 3  Xrotation Yrotation Zrotation
						End Site
						{
							OFFSET	1	0	0
						}
					}
				}
			}
		}
	}
}
MOTION
Frames: 7
Frame Time: 0.02
2800.94 716.97 -1473.77 14.180922345 71.6821492108 -11.3639098907 -0.381874 -0.457046 -2.14586 -0.379369 -0.319606 -2.17058 -0.365506 0.157696 -2.1883 -0.372138 -0.189799 -2.18575 -11.9761 7.94437 6.59912 -11.9166 10.8188 8.55605 -0.0 0.0 -0.0 -1.52931 20.3521 0.141617 16.3081 -29.6023 76.7264 3.14793 -57.3165 1.72077 -33.3847 -2.27666 3.54621 -1.67616 3.82835 -9.4968 -0.0 0.0 -0.0 -0.221487 9.30566 1.5619 -15.4681 14.8868 -73.6048 0.755514 20.5188 -0.136749 51.6852 1.09208 6.29046 0.690799 -3.38117 -5.99432 0.0 0.0 0.0 -19.9993 19.9771 5.94861 -6.47805 0.212003 0.971059 39.9685 -2.78998 -4.89955 -8.82579 0.0 0.0 -0.0 0.0 -0.0 27.006 29.6924 -10.4008 -6.12816 -0.20337 -0.918057 7.29393 -4.78625 1.04779 -17.4963 0.0 0.0 0.0 0.0 0.0 
2750.61527843 723.047 -1487.42551257 16.4233638787 74.5281526639 -13.9731113122 -0.447874 -0.384763 -2.02942 -0.445619 -0.254873 -2.04978 -0.434937 0.197278 -2.05612 -0.440813 -0.129853 -2.06148 -10.2368 8.00688 6.42995 -10.1651 10.7703 8.26245 -0.0 0.0 -0.0 -2.19979 19.1635 -1.0444 13.0652 -29.7206 78.1522 2.7353 -53.5625 1.38077 -31.8103 -2.12524 3.41262 -1.28443 4.64947 -6.51344 -0.0 0.0 -0.0 0.670142 9.68095 -0.239033 -12.6551 15.1741 -72.7096 0.696748 19.0421 -0.11686 51.8571 1.10495 6.30833 0.879563 0.105263 -5.84161 0.0 0.0 0.0 -22.0498 20.4407 5.80176 -6.14856 0.203882 0.921146 32.8355 -0.240788 -4.2069 -9.03675 0.0 0.0 -0.0 0.0 -0.0 25.6274 29.3877 -10.8023 -10.3015 -0.285168 -1.55311 8.50473 -8.4457 1.21502 -16.6156 0.0 0.0 0.0 0.0 0.0 
2750.91156664 723.047 -1488.47396139 15.2862633254 73.3764740998 -12.7899664252 -0.447874 -0.384763 -2.02942 -0.445619 -0.254873 -2.04978 -0.434937 0.197278 -2.05612 -0.440813 -0.129853 -2.06148 -10.2368 8.00688 6.42995 -10.1651 10.7703 8.26245 -0.0 0.0 -0.0 -2.19979 19.1635 -1.0444 13.0652 -29.7206 78.1522 2.7353 -53.5625 1.38077 -31.8103 -2.12524 3.41262 -1.28443 4.64947 -6.51344 -0.0 0.0 -0.0 0.670142 9.68095 -0.239033 -12.6551 15.1741 -72.7096 0.696748 19.0421 -0.11686 51.8571 1.10495 6.30833 0.879563 0.105263 -5.84161 0.0 0.0 0.0 -22.0498 20.4407 5.80176 -6.14856 0.203882 0.921146 32.8355 -0.240788 -4.2069 -9.03675 0.0 0.0 -0.0 0.0 -0.0 25.6274 29.3877 -10.8023 -10.3015 -0.285168 -1.55311 8.50473 -8.4457 1.21502 -16.6156 0.0 0.0 0.0 0.0 0.0 
2751.14677038 723.047 -1489.25176052 14.5372922795 72.5136569779 -12.0065668279 -0.447874 -0.384763 -2.02942 -0.445619 -0.254873 -2.04978 -0.434937 0.197278 -2.05612 -0.440813 -0.129853 -2.06148 -10.2368 8.00688 6.42995 -10.1651 10.7703 8.26245 -0.0 0.0 -0.0 -2.19979 19.1635 -1.0444 13.0652 -29.7206 78.1522 2.7353 -53.5625 1.38077 -31.8103 -2.12524 3.41262 -1.28443 4.64947 -6.51344 -0.0 0.0 -0.0 0.670142 9.68095 -0.239033 -12.6551 15.1741 -72.7096 0.696748 19.0421 -0.11686 51.8571 1.10495 6.30833 0.879563 0.105263 -5.84161 0.0 0.0 0.0 -22.0498 20.4407 5.80176 -6.14856 0.203882 0.921146 32.8355 -0.240788 -4.2069 -9.03675 0.0 0.0 -0.0 0.0 -0.0 25.6274 29.3877 -10.8023 -10.3015 -0.285168 -1.55311 8.50473 -8.4457 1.21502 -16.6156 0.0 0.0 0.0 0.0 0.0 
2751.43866972 723.047 -1490.16112337 13.7478804668 71.4960115416 -11.1765869928 -0.447874 -0.384763 -2.02942 -0.445619 -0.254873 -2.04978 -0.434937 0.197278 -2.05612 -0.440813 -0.129853 -2.06148 -10.2368 8.00688 6.42995 -10.1651 10.7703 8.26245 -0.0 0.0 -0.0 -2.19979 19.1635 -1.0444 13.0652 -29.7206 78.1522 2.7353 -53.5625 1.38077 -31.8103 -2.12524 3.41262 -1.28443 4.64947 -6.51344 -0.0 0.0 -0.0 0.670142 9.68095 -0.239033 -12.6551 15.1741 -72.7096 0.696748 19.0421 -0.11686 51.8571 1.10495 6.30833 0.879563 0.105263 -5.84161 0.0 0.0 0.0 -22.0498 20.4407 5.80176 -6.14856 0.203882 0.921146 32.8355 -0.240788 -4.2069 -9.03675 0.0 0.0 -0.0 0.0 -0.0 25.6274 29.3877 -10.8023 -10.3015 -0.285168 -1.55311 8.50473 -8.4457 1.21502 -16.6156 0.0 0.0 0.0 0.0 0.0 
2697.11526993 728.568 -1506.44508553 16.6445189912 67.910363552 -14.9437534315 -0.79462 -0.085054 -1.48852 -0.793388 0.0098258 -1.49091 -0.792859 0.343145 -1.45093 -0.795781 0.109719 -1.4869 -7.78225 10.8538 6.89715 -7.68463 15.3607 9.14816 -0.0 0.0 -0.0 -2.87182 21.4418 -1.61133 8.33175 -29.702 77.8473 2.1603 -46.9348 0.937952 -29.2837 -1.8901 3.18974 -0.563643 0.149673 -3.70178 -0.0 0.0 -0.0 1.05518 11.4039 -0.853676 -10.27 19.1698 -73.3354 0.598774 16.5213 -0.0869325 50.3272 0.992335 6.148 0.302702 -2.99976 -3.26352 0.0 0.0 0.0 -21.2926 16.1697 5.00729 -17.894 0.314761 2.71681 27.36 5.09465 -3.60032 -5.63048 0.0 0.0 -0.0 0.0 -0.0 24.0377 29.3079 -12.856 -20.8262 -0.284902 -3.16568 19.4361 -9.21727 2.66224 -18.4789 0.0 0.0 0.0 0.0 0.0 
2684.93920839 731.617 -1512.83146826 15.5539819079 65.7791455713 -13.8784741726 -0.893925 0.20676 -1.26174 -0.893085 0.286622 -1.24603 -0.898991 0.560302 -1.14928 -0.900642 0.371778 -1.22333 -7.30365 11.2747 7.57093 -7.17111 15.5658 9.84842 -0.0 0.0 -0.0 -3.16361 22.9329 -1.72811 7.06185 -29.1478 77.6281 1.99133 -44.604 0.816852 -28.6918 -1.83647 3.13606 -0.437175 0.316411 -2.78459 -0.0 0.0 -0.0 1.56918 12.932 -1.77207 -7.71679 21.0202 -72.8484 0.599538 16.5412 -0.0871499 49.9792 0.967324 6.11113 0.270193 -3.01031 -3.05241 0.0 0.0 0.0 -18.8358 16.3462 4.11581 -22.2343 0.262409 3.38056 23.7785 7.19708 -3.18798 -6.89841 0.0 0.0 -0.0 0.0 -0.0 23.7984 29.0393 -13.3939 -22.2211 -0.262645 -3.37855 21.0466 -8.03206 2.86004 -18.7461 0.0 0.0 0.0 0.0 0.0 
